<svg width="113" height="113" viewBox="0 0 113 113" fill="none" xmlns="http://www.w3.org/2000/svg">
<circle cx="56.5" cy="56.5" r="56.5" fill="url(#paint0_linear_226_618)"/>
<path d="M57.3938 43.6953H43.6438C43.1879 43.6953 42.7507 43.8764 42.4284 44.1987C42.1061 44.5211 41.925 44.9582 41.925 45.4141C41.925 45.8699 42.1061 46.3071 42.4284 46.6294C42.7507 46.9517 43.1879 47.1328 43.6438 47.1328H57.3938C57.8496 47.1328 58.2868 46.9517 58.6091 46.6294C58.9314 46.3071 59.1125 45.8699 59.1125 45.4141C59.1125 44.9582 58.9314 44.5211 58.6091 44.1987C58.2868 43.8764 57.8496 43.6953 57.3938 43.6953ZM57.3938 52.8906H43.6438C43.1879 52.8906 42.7507 53.0717 42.4284 53.394C42.1061 53.7164 41.925 54.1535 41.925 54.6094C41.925 55.0652 42.1061 55.5024 42.4284 55.8247C42.7507 56.147 43.1879 56.3281 43.6438 56.3281H57.3938C57.8496 56.3281 58.2868 56.147 58.6091 55.8247C58.9314 55.5024 59.1125 55.0652 59.1125 54.6094C59.1125 54.1535 58.9314 53.7164 58.6091 53.394C58.2868 53.0717 57.8496 52.8906 57.3938 52.8906ZM57.3938 62.2922H43.6438C43.1879 62.2922 42.7507 62.4733 42.4284 62.7956C42.1061 63.1179 41.925 63.5551 41.925 64.0109C41.925 64.4668 42.1061 64.9039 42.4284 65.2263C42.7507 65.5486 43.1879 65.7297 43.6438 65.7297H57.3938C57.8496 65.7297 58.2868 65.5486 58.6091 65.2263C58.9314 64.9039 59.1125 64.4668 59.1125 64.0109C59.1125 63.5551 58.9314 63.1179 58.6091 62.7956C58.2868 62.4733 57.8496 62.2922 57.3938 62.2922Z" fill="white"/>
<path d="M73.4641 30.7188H39.5359C38.6542 30.721 37.7816 30.8972 36.9681 31.2372C36.1546 31.5772 35.4161 32.0744 34.795 32.7003C34.174 33.3261 33.6825 34.0684 33.3487 34.8845C33.0149 35.7006 32.8455 36.5745 32.85 37.4562V79.3766C32.8489 79.8067 32.9623 80.2295 33.1785 80.6013C33.3948 80.9732 33.7062 81.2807 34.0806 81.4925C34.4551 81.7042 34.8792 81.8124 35.3093 81.8061C35.7394 81.7997 36.1601 81.679 36.5281 81.4562L42.8531 77.6578C42.9485 77.5984 43.0587 77.5669 43.1711 77.5669C43.2835 77.5669 43.3936 77.5984 43.4891 77.6578L50.5188 81.8687C50.8885 82.1044 51.3178 82.2296 51.7563 82.2297C52.1974 82.2274 52.6302 82.1088 53.0109 81.8859L60.075 77.6578C60.1704 77.5984 60.2806 77.5669 60.393 77.5669C60.5054 77.5669 60.6155 77.5984 60.7109 77.6578L67.0016 81.4562C67.3708 81.6756 67.7924 81.7914 68.2219 81.7914C68.6514 81.7914 69.0729 81.6756 69.4422 81.4562C69.8119 81.2448 70.1194 80.9396 70.3336 80.5715C70.5479 80.2034 70.6613 79.7853 70.6625 79.3594V50.3812H76.0594C77.1429 50.3767 78.1807 49.9443 78.9469 49.1781C79.713 48.412 80.1455 47.3741 80.15 46.2906V37.4562C80.1545 36.5745 79.9851 35.7006 79.6513 34.8845C79.3175 34.0684 78.826 33.3261 78.205 32.7003C77.5839 32.0744 76.8454 31.5772 76.0319 31.2372C75.2184 30.8972 74.3458 30.721 73.4641 30.7188ZM67.225 77.5719L62.4813 74.7187C61.8493 74.3436 61.1279 74.1455 60.393 74.1455C59.658 74.1455 58.9366 74.3436 58.3047 74.7187L51.7734 78.6375L45.2594 74.7016C44.6199 74.3191 43.8881 74.1185 43.1429 74.1215C42.3978 74.1245 41.6676 74.3311 41.0313 74.7187L36.2875 77.5891V37.4562C36.2807 37.0253 36.3596 36.5974 36.5198 36.1973C36.68 35.7972 36.9182 35.433 37.2205 35.1259C37.5229 34.8187 37.8833 34.5748 38.2808 34.4084C38.6783 34.2419 39.105 34.1562 39.5359 34.1562H67.9297C67.4758 35.0209 67.2342 35.9813 67.225 36.9578V77.5203V77.5719ZM76.7125 46.2906C76.7125 46.4638 76.6437 46.63 76.5212 46.7525C76.3987 46.8749 76.2326 46.9437 76.0594 46.9437H70.6625V37.0094C70.6556 36.6372 70.7231 36.2673 70.8608 35.9214C70.9985 35.5755 71.2038 35.2606 71.4646 34.995C71.7254 34.7293 72.0366 34.5183 72.3799 34.3743C72.7232 34.2303 73.0918 34.1562 73.4641 34.1562C74.3256 34.1562 75.1519 34.4985 75.7611 35.1077C76.3703 35.7169 76.7125 36.5431 76.7125 37.4047V46.2906Z" fill="white"/>
<defs>
<linearGradient id="paint0_linear_226_618" x1="0" y1="0" x2="171.356" y2="37.8862" gradientUnits="userSpaceOnUse">
<stop stop-color="#3555D1"/>
<stop offset="1" stop-color="#F4F4F4"/>
</linearGradient>
</defs>
</svg>
