<svg width="113" height="113" viewBox="0 0 113 113" fill="none" xmlns="http://www.w3.org/2000/svg">
<circle cx="56.5" cy="56.5" r="56.5" fill="url(#paint0_linear_226_593)"/>
<g clip-path="url(#clip0_226_593)">
<path d="M65.3917 64.6082C66.8296 64.1322 68.2502 65.293 69.2198 65.7477L70.751 62.907C69.6 62.3174 68.8536 61.7475 67.3539 61.4086V59.7968H64.1268V61.6413C61.4881 62.657 60.4592 66.5461 62.7834 68.3599C63.75 69.1182 65.1134 69.6575 66.4428 70.1274C67.0722 70.3499 67.3389 70.7744 67.2357 71.3888C67.1563 71.8609 66.7498 72.6617 65.7296 72.6684C64.6663 72.6752 64.415 72.6363 63.6383 72.1281L62.2881 71.2448L60.5214 73.9452L61.8717 74.8287C62.7201 75.3837 63.3926 75.66 64.1269 75.7903V77.5458H67.354V75.6079C71.2463 74.2235 71.6949 68.5207 67.5184 67.0849C66.4997 66.7248 65.3771 66.2931 64.775 65.8208C64.5684 65.4783 64.8852 64.7909 65.3917 64.6082Z" fill="white"/>
<path d="M73.7271 55.7605V38.7117L65.0155 30H33.0657V81.8486H57.8514C60.1377 83.214 62.8083 84 65.6594 84C74.082 84 80.9343 77.1477 80.9343 68.7251C80.9343 63.2623 78.0511 58.4609 73.7271 55.7605ZM70.5 40.0484V40.1116H63.7231V33.2715L70.5 40.0484ZM36.2928 33.2271H60.496V43.3386H70.5V54.2367C68.9782 53.727 67.3506 53.4502 65.6594 53.4502C57.2368 53.4502 50.3845 60.3025 50.3845 68.7251C50.3845 72.4972 51.7596 75.9538 54.034 78.6215H36.2928V33.2271ZM65.6594 80.7729C59.0162 80.7729 53.6116 75.3683 53.6116 68.7251C53.6116 62.0819 59.0162 56.6773 65.6594 56.6773C72.3025 56.6773 77.7072 62.0819 77.7072 68.7251C77.7072 75.3683 72.3025 80.7729 65.6594 80.7729Z" fill="white"/>
<path d="M41.5638 37.8525H53.6116V41.0796H41.5638V37.8525ZM41.5638 44.3067H57.6992V47.5338H41.5638V44.3067ZM41.5638 50.7609H51.0299V53.988H41.5638V50.7609Z" fill="white"/>
</g>
<defs>
<linearGradient id="paint0_linear_226_593" x1="0" y1="0" x2="171.356" y2="37.8862" gradientUnits="userSpaceOnUse">
<stop stop-color="#3555D1"/>
<stop offset="1" stop-color="#F4F4F4"/>
</linearGradient>
<clipPath id="clip0_226_593">
<rect width="54" height="54" fill="white" transform="translate(30 30)"/>
</clipPath>
</defs>
</svg>
