<svg width="113" height="113" viewBox="0 0 113 113" fill="none" xmlns="http://www.w3.org/2000/svg">
<circle cx="56.5" cy="56.5" r="56.5" fill="url(#paint0_linear_226_607)"/>
<path d="M31.9055 62.5841C31.4782 62.6696 31.1364 63.0969 31.1364 63.5242C31.2219 64.0369 31.6491 64.2933 32.0764 64.2933C54.8931 61.6441 69.1642 45.5784 73.437 40.1093L73.6934 42.8439C73.6934 43.2711 74.1206 43.613 74.5479 43.613C75.0607 43.613 75.4879 43.1857 75.4025 42.673L74.8898 37.7165C74.8043 37.2038 74.2916 36.862 73.9497 36.9474L68.6515 37.5456C68.2242 37.6311 67.8824 38.0583 67.8824 38.4856C67.9678 38.9129 68.3951 39.2547 68.8224 39.2547L72.1552 38.8274C68.3097 43.9548 54.3804 60.0205 31.9055 62.5841ZM83.6917 74.377C84.0335 69.4206 79.8462 64.5496 74.2916 64.5496C73.9497 64.5496 73.6079 64.5496 73.2661 64.6351V51.0476H76.5989V61.6441C76.5989 62.1569 76.9407 62.4987 77.4534 62.4987C77.9662 62.4987 78.308 62.1569 78.308 61.6441V50.1931C78.308 49.6803 77.9662 49.3385 77.4534 49.3385H72.4115C71.8988 49.3385 71.557 49.6803 71.557 50.1931V64.8915C70.3606 65.2333 69.1642 65.8315 68.2242 66.686V56.0041C68.2242 55.4913 67.8824 55.1495 67.3696 55.1495H62.3278C61.815 55.1495 61.4732 55.4913 61.4732 56.0041V81.8117H58.055V71.7279C58.055 71.2152 57.7131 70.8734 57.2004 70.8734C56.6877 70.8734 56.3458 71.2152 56.3458 71.7279V81.7262H53.0131V62.5841H56.3458V67.3697C56.3458 67.8824 56.6877 68.2242 57.2004 68.2242C57.7131 68.2242 58.055 67.8824 58.055 67.3697V61.6441C58.055 61.1314 57.7131 60.7896 57.2004 60.7896H52.1585C51.6458 60.7896 51.304 61.1314 51.304 61.6441V81.7262H47.9712V67.4551C47.9712 66.9424 47.6294 66.6006 47.1166 66.6006H42.0747C41.562 66.6006 41.2202 66.9424 41.2202 67.4551V81.7262H37.8874V71.4715C37.8874 70.9588 37.5456 70.617 37.0328 70.617H31.991C31.4782 70.617 31.1364 70.9588 31.1364 71.4715V81.7262H29.8546C29.3418 81.7262 29 82.0681 29 82.5808C29 83.0935 29.3418 83.4354 29.8546 83.4354H82.8371C83.3499 83.4354 83.6917 83.0935 83.6917 82.5808C83.6917 82.0681 83.3499 81.7262 82.8371 81.7262H79.6753C82.068 80.1026 83.6062 77.368 83.6917 74.377ZM32.8455 81.8117V72.4116H36.1783V81.8117H32.8455ZM42.9293 81.8117V68.3097H46.2621V81.7262H42.9293V81.8117ZM63.0969 81.8117V56.8586H66.4296V68.5661C65.3187 70.1043 64.7205 71.9843 64.7205 74.0352C64.7205 77.0262 66.1733 79.9317 68.8224 81.8117H63.0969ZM74.1206 81.8117C69.8479 81.8117 66.4296 78.308 66.4296 74.0352C66.4296 69.8479 69.7624 66.2587 74.2061 66.2587C78.7353 66.2587 82.2389 70.1897 81.9826 74.2916C81.8117 78.4789 78.308 81.8117 74.1206 81.8117Z" fill="white"/>
<path d="M29.7691 39.9383C29.3418 40.0238 29 40.3656 29 40.7929V44.4675C29 44.8948 29.3418 45.2366 29.7691 45.3221L32.2473 45.5784C32.5037 46.3475 32.7601 47.1166 33.1873 47.8003L31.6491 49.7658C31.3928 50.1076 31.3928 50.6203 31.7346 50.8767L34.2983 53.4404C34.6401 53.7822 35.0674 53.7822 35.4092 53.5258L37.3747 51.9876C38.0583 52.4149 38.8274 52.6712 39.5965 52.9276L39.8529 55.4058C39.9383 55.8331 40.2802 56.1749 40.7074 56.1749H44.382C44.8093 56.1749 45.1511 55.8331 45.2366 55.4058L45.493 52.9276C46.2621 52.6712 47.0312 52.4149 47.7148 51.9876L49.6803 53.5258C50.0221 53.7822 50.5349 53.7822 50.7912 53.4404L53.3549 50.8767C53.6967 50.5349 53.6967 50.1076 53.4404 49.7658L52.0731 47.8857C52.5003 47.2021 52.7567 46.433 53.0131 45.6639L55.4913 45.4075C55.9186 45.3221 56.2604 44.9802 56.2604 44.5529V40.8784C56.2604 40.4511 55.9186 40.1093 55.4913 40.0238L53.0131 39.7674C52.7567 38.9983 52.5003 38.2292 52.0731 37.5456L53.6113 35.5801C53.8676 35.2383 53.8676 34.7255 53.5258 34.4692L50.9621 31.9055C50.6203 31.5637 50.193 31.5637 49.8512 31.82L47.8003 33.1873C47.1166 32.7601 46.3475 32.5037 45.5784 32.2473L45.3221 29.7691C45.2366 29.3418 44.8948 29 44.4675 29H40.7929C40.3656 29 40.0238 29.3418 39.9383 29.7691L39.682 32.2473C38.9129 32.5037 38.1438 32.7601 37.4601 33.1873L35.4092 31.6491C35.0674 31.3928 34.5546 31.3928 34.2983 31.7346L31.7346 34.2983C31.3928 34.6401 31.3073 35.0674 31.6491 35.4092L33.1873 37.3747C32.7601 38.0583 32.5037 38.8274 32.2473 39.5965L29.7691 39.9383ZM33.7855 40.622C34.0419 39.5965 34.3837 38.6565 34.9819 37.8019C35.1528 37.4601 35.1528 37.1183 34.8964 36.7765L33.4437 34.9819L34.9819 33.4437L36.7765 34.8964C37.0328 35.1528 37.4601 35.1528 37.8019 34.9819C38.6565 34.4692 39.5965 34.0419 40.622 33.7855C40.9638 33.7001 41.2202 33.4437 41.3056 33.0164L41.562 30.7091H43.6984L43.9548 33.0164C44.0402 33.3582 44.2966 33.7001 44.6384 33.7855C45.6639 34.0419 46.6039 34.3837 47.4584 34.9819C47.8003 35.1528 48.1421 35.1528 48.4839 34.8964L50.2785 33.4437L51.8167 34.9819L50.3639 36.7765C50.1076 37.0328 50.1076 37.4601 50.2785 37.8019C50.7912 38.6565 51.2185 39.5965 51.4749 40.622C51.5603 40.9638 51.8167 41.2202 52.244 41.3056L54.5513 41.562V43.6984L52.244 43.9548C51.9021 44.0402 51.5603 44.2966 51.4749 44.6384C51.2185 45.6639 50.8767 46.6039 50.2785 47.4584C50.1076 47.8003 50.1076 48.1421 50.3639 48.4839L51.8167 50.2785L50.2785 51.8167L48.4839 50.3639C48.2275 50.1076 47.8003 50.1076 47.4584 50.2785C46.6039 50.7912 45.6639 51.2185 44.6384 51.4749C44.2966 51.5603 44.0402 51.8167 43.9548 52.244L43.6984 54.5513H41.562L41.3056 52.244C41.2202 51.9021 40.9638 51.5603 40.622 51.4749C39.5965 51.2185 38.6565 50.8767 37.8019 50.2785C37.4601 50.1076 37.1183 50.1076 36.7765 50.3639L34.9819 51.8167L33.4437 50.2785L34.8964 48.4839C35.1528 48.2275 35.1528 47.8003 34.9819 47.4584C34.4692 46.6039 34.0419 45.6639 33.7855 44.6384C33.7001 44.2966 33.4437 44.0402 33.0164 43.9548L30.7091 43.6984V41.562L33.0164 41.3056C33.3582 41.2202 33.7001 40.9638 33.7855 40.622Z" fill="white"/>
<path d="M42.5875 48.6549C45.9203 48.6549 48.6549 45.9203 48.6549 42.5875C48.6549 39.2547 45.9203 36.6056 42.5875 36.6056C39.2548 36.6056 36.5202 39.3402 36.5202 42.673C36.5202 46.0057 39.2548 48.6549 42.5875 48.6549ZM42.5875 38.3147C44.9803 38.3147 46.9458 40.2802 46.9458 42.673C46.9458 45.0657 44.9803 47.0312 42.5875 47.0312C40.1948 47.0312 38.2293 45.0657 38.2293 42.673C38.2293 40.2802 40.1948 38.3147 42.5875 38.3147ZM76.428 69.0788L74.2062 71.3006L71.9843 69.0788C71.6425 68.737 71.1298 68.737 70.7879 69.0788C70.4461 69.4206 70.4461 69.9333 70.7879 70.2752L73.3516 72.8388V73.6934H71.8989C71.3861 73.6934 71.0443 74.0352 71.0443 74.548C71.0443 75.0607 71.3861 75.4025 71.8989 75.4025H73.3516V76.7698H71.8989C71.3861 76.7698 71.0443 77.1116 71.0443 77.6244C71.0443 78.1371 71.3861 78.4789 71.8989 78.4789H73.3516V79.3335C73.3516 79.8462 73.6934 80.188 74.2062 80.188C74.7189 80.188 75.0607 79.8462 75.0607 79.3335V78.4789H76.5135C77.0262 78.4789 77.368 78.1371 77.368 77.6244C77.368 77.1116 77.0262 76.7698 76.5135 76.7698H75.0607V75.488H76.5135C77.0262 75.488 77.368 75.1461 77.368 74.6334C77.368 74.1207 77.0262 73.7789 76.5135 73.7789H75.0607V72.9243L77.6244 70.3606C77.9662 70.0188 77.9662 69.5061 77.6244 69.1642C77.2826 68.8224 76.7698 68.737 76.428 69.0788Z" fill="white"/>
<defs>
<linearGradient id="paint0_linear_226_607" x1="0" y1="0" x2="171.356" y2="37.8862" gradientUnits="userSpaceOnUse">
<stop stop-color="#3555D1"/>
<stop offset="1" stop-color="#F4F4F4"/>
</linearGradient>
</defs>
</svg>
