<svg width="236" height="15" viewBox="0 0 236 15" fill="none" xmlns="http://www.w3.org/2000/svg">
<path d="M227.249 2.28622C226.708 2.3368 225.293 2.3292 225.293 2.27609C225.293 2.17241 226.336 2.12436 226.913 2.1977C227.211 2.23564 227.363 2.2761 227.249 2.28622ZM223.646 1.76017C223.193 1.76017 222.823 1.7197 222.823 1.67165C222.823 1.6236 223.193 1.58566 223.646 1.58566C224.099 1.58566 224.47 1.6236 224.47 1.67165C224.47 1.7197 224.099 1.76017 223.646 1.76017ZM114.509 11.0365C117.157 11.1326 118.259 11.2262 118.249 11.3552C118.242 11.4589 117.818 11.5271 117.257 11.5119L116.28 11.4892L117.093 11.6384L117.907 11.7901L117.123 11.8863C116.6 11.9495 116.13 11.8989 115.716 11.737C114.848 11.3956 108.688 11.0643 106.911 11.2616C105.909 11.3728 103.457 11.302 97.4437 10.9809C92.9802 10.7431 89.0997 10.5054 88.8202 10.4523C88.342 10.3612 88.3369 10.3461 88.734 10.2273C89.0454 10.1337 88.9534 10.1083 88.3839 10.1362C87.4914 10.1792 87.1298 9.90354 87.9887 9.83526C88.3034 9.80997 89.2556 9.80741 90.1047 9.83017C90.9537 9.8504 91.7728 9.79475 91.9251 9.70624C92.0775 9.6152 93.5923 9.53936 95.2917 9.5343C98.3139 9.52671 100.335 9.7113 100.105 9.97178C100.041 10.0451 100.286 10.159 100.649 10.2273C101.498 10.3866 109.669 10.8646 114.509 11.0365ZM118.696 11.7421C119.025 11.7497 119.225 11.6814 119.16 11.5828C119.097 11.4892 119.236 11.4209 119.469 11.4336C119.702 11.4437 119.887 11.5145 119.882 11.5929C119.876 11.6688 120.867 11.7497 122.085 11.775C123.545 11.8053 124.19 11.8686 123.979 11.9621C123.6 12.1316 119.246 12.0506 118.579 11.861C118.154 11.7421 118.164 11.732 118.696 11.7421ZM122.829 11.4841C123.03 11.4513 123.354 11.469 123.549 11.5196C123.743 11.5701 123.579 11.5954 123.183 11.5777C122.787 11.5575 122.628 11.5145 122.829 11.4841ZM94.6982 14.5265C94.5854 14.5215 94.4985 14.4431 94.5056 14.352C94.5123 14.261 94.6103 14.1927 94.7234 14.1978C94.8365 14.2028 94.9234 14.2812 94.9163 14.3722C94.9096 14.4633 94.8112 14.5341 94.6982 14.5265ZM86.0772 9.901C85.3991 9.86812 85.1486 9.82511 85.5208 9.80488C85.8932 9.78718 86.4478 9.815 86.7538 9.86811C87.0598 9.92121 86.7551 9.93641 86.0772 9.901ZM100.937 9.79475C101.111 9.75176 101.248 9.7872 101.241 9.87571C101.234 9.96423 101.09 10.03 100.92 10.0198C100.751 10.0123 100.614 9.97686 100.617 9.94146C100.62 9.90605 100.764 9.84028 100.937 9.79475ZM231.161 4.06407C229.323 4.00337 227.559 3.74035 228.279 3.63666C228.506 3.60378 229 3.51022 229.378 3.43182C229.969 3.31043 230.013 3.28009 229.687 3.22698C229.479 3.19158 229.046 3.16125 228.725 3.15872C228.353 3.15366 228.174 3.11316 228.23 3.04235C228.293 2.96648 228.875 2.93617 230.255 2.94376C231.381 2.94881 232.249 2.91338 232.329 2.8628C232.496 2.75405 230.972 2.41517 230.005 2.34436C229.622 2.31907 228.942 2.23057 228.495 2.14964C227.81 2.02572 227.737 1.99033 228.032 1.91951C228.682 1.76778 228.422 1.65393 227.559 1.71463C226.64 1.78038 226.377 1.62612 227.25 1.53508C227.809 1.47438 227.855 1.43393 227.57 1.24172C227.441 1.15574 227.491 1.08242 227.727 1.00908C227.917 0.950911 228.017 0.880079 227.948 0.849731C227.842 0.806739 224.71 0.680279 221.587 0.599351C219.883 0.5513 218.079 0.432458 217.968 0.354059C217.907 0.313595 217.683 0.280708 217.47 0.280708C216.986 0.280708 216.788 0.146681 217.02 0C214.991 0.0177031 212.963 0.0682526 210.935 0.159297C210.799 0.166883 210.662 0.179569 210.526 0.187156C208.062 0.240265 204.968 0.341394 203.035 0.447613C202.181 0.493134 200.458 0.558908 199.208 0.594314C197.957 0.62972 196.05 0.687877 194.969 0.723282C193.889 0.756159 190.635 0.816835 187.739 0.85477C181.661 0.938227 177.473 1.06219 174.094 1.26198C172.58 1.35302 170.232 1.32769 167.653 1.19618C165.04 1.06215 163.59 1.04698 163.582 1.15573C163.575 1.24677 163.176 1.31 162.695 1.29482L161.82 1.26701L162.498 1.46173C162.872 1.56795 163.129 1.68938 163.07 1.72984C162.829 1.90181 155.064 1.74753 147.163 1.41623C142.526 1.2215 138.405 1.09 138.006 1.12288C137.606 1.15829 135.007 1.15067 132.231 1.10515C123.406 0.960998 122.59 0.976171 122.074 1.29482C121.82 1.45162 121.483 1.57304 121.326 1.56546C121.169 1.55787 119.765 1.59576 118.205 1.6514C116.646 1.70451 113.746 1.7551 111.76 1.76269C105.628 1.78039 100.825 1.86639 98.2302 2.00042C96.8633 2.07123 94.5915 2.14964 93.1815 2.17493C91.7715 2.20275 90.5382 2.2584 90.4404 2.29886C90.343 2.34186 87.6933 2.28365 84.5529 2.16985C78.6935 1.95741 69.6234 1.97513 55.513 2.22803C54.4045 2.24826 43.3588 2.23817 38.2899 2.21035C36.3558 2.20023 26.2226 1.84108 14.0147 1.34792C7.35163 1.07985 5.01048 1.10517 3.48645 1.45417C2.01386 1.79306 0.826191 1.84363 0.481519 1.58314C0.317649 1.45922 0.111934 1.40863 0.0247285 1.47185C-0.0621581 1.53508 0.0873348 1.73486 0.356939 1.91695C0.626543 2.10156 0.995492 2.36967 1.17693 2.51635C1.88001 3.08031 2.6917 3.32561 4.46521 3.50517C5.47846 3.60633 7.25228 3.78335 8.40736 3.89969C9.56244 4.01349 10.5492 4.17032 10.6003 4.24619C10.7587 4.48391 9.47396 4.5547 8.36169 4.36755C7.05998 4.15006 0.83258 3.80359 0.8214 3.94775C0.801914 4.20065 5.5449 4.83291 9.49984 5.10604C11.87 5.27043 15.4206 5.57641 17.3902 5.78378C21.4621 6.21624 27.9249 6.55513 45.0757 7.23795C51.6644 7.50097 57.0504 7.77409 57.045 7.84743C57.0297 8.04722 55.3475 8.10796 52.9706 7.98909C51.5954 7.92334 50.8703 7.94608 50.9438 8.05736C51.0083 8.15346 52.0011 8.27485 53.221 8.33555C54.8396 8.41395 55.359 8.49234 55.2843 8.63903C54.954 9.29909 48.8764 9.35725 45.8389 8.73006C44.2065 8.39117 43.062 8.27486 36.4235 7.764C34.9007 7.64767 33.3674 7.48833 33.0157 7.41246C32.4762 7.2936 32.3504 7.32901 32.2066 7.62743C32.051 7.95114 31.9236 7.97139 30.7238 7.86265C28.9378 7.69826 29.0429 7.89801 30.8624 8.12562C31.669 8.22678 32.4363 8.38865 32.5673 8.48981C32.9614 8.7857 33.4732 8.84133 39.7948 9.26115C45.944 9.67084 47.1093 9.83777 45.7283 10.1058C45.1955 10.2095 46.5962 10.298 50.9687 10.4396C59.328 10.7102 68.9855 11.1655 69.073 11.297C69.1909 11.4715 68.3064 11.5625 66.9772 11.5094C65.9576 11.4715 65.8285 11.4943 66.2339 11.6485C66.7606 11.8483 69.3653 11.8534 70.0604 11.6561C70.2923 11.5904 71.5049 11.5094 72.7555 11.4765C74.988 11.4209 75.0439 11.4285 75.8713 11.8736C76.6376 12.2858 77.096 12.3693 80.9596 12.7739C85.1831 13.219 90.442 13.9044 91.0189 14.089C91.185 14.1421 89.5588 14.0688 87.4051 13.9271C85.2515 13.788 83.3528 13.7324 83.1857 13.8058C82.9934 13.8918 83.7105 13.9904 85.1407 14.0764C86.3829 14.1522 89.1994 14.3469 91.399 14.5113H91.3987C97.0524 14.9362 100.778 15.1006 100.992 14.9387C101.098 14.8578 100.851 14.8249 100.401 14.8578C99.9753 14.8882 99.5833 14.8502 99.5303 14.7693C99.3709 14.5316 100.731 14.5291 106.021 14.7567C108.789 14.8755 111.126 14.9438 111.215 14.9059C111.304 14.868 112.559 14.8654 114.005 14.9033C117.543 14.9918 123.195 14.9767 126.852 14.8654C128.501 14.8148 130.824 14.7819 132.015 14.7895C133.205 14.7996 134.413 14.782 134.699 14.7541C134.985 14.7263 137.123 14.6808 139.451 14.653C141.779 14.6252 144.01 14.5847 144.409 14.5645C144.807 14.5417 147.275 14.4456 149.892 14.3469C152.508 14.2483 155.814 14.1118 157.238 14.0409C158.661 13.9727 160.757 13.8791 161.895 13.8311C164.291 13.735 168.975 13.434 170.187 13.2974C171.011 13.2064 171.072 13.1457 170.862 12.6197C170.773 12.3971 171.055 12.3162 172.48 12.1644C173.43 12.0633 174.624 11.9849 175.134 11.9925C175.644 11.9975 176.204 11.9571 176.378 11.9014C176.553 11.8433 177.768 11.7269 179.08 11.6384C180.391 11.5499 181.885 11.4336 182.4 11.3779C182.915 11.3223 183.957 11.2616 184.715 11.2414C185.692 11.2161 186.135 11.1326 186.237 10.9531C186.455 10.5686 186.29 10.5206 185.199 10.6673C184.648 10.7406 183.686 10.8139 183.061 10.8291C182.436 10.8468 181.41 10.9025 180.782 10.9556C176.561 11.3096 176.47 11.3046 176.88 10.771C177.175 10.3866 178.196 10.2247 180.426 10.207C181.391 10.1994 182.741 10.1539 183.425 10.1033C184.11 10.0553 185.971 9.99962 187.56 9.97939C189.151 9.95916 191.335 9.91364 192.416 9.87823C193.496 9.84535 196.889 9.74673 199.955 9.66075C203.02 9.57729 205.676 9.44323 205.856 9.36231C206.078 9.26621 205.783 9.22826 204.943 9.25102C204.261 9.27125 202.634 9.30414 201.328 9.32437C200.022 9.34713 197.93 9.38509 196.68 9.40785C195.43 9.43314 192.087 9.46097 189.25 9.46855C186.413 9.47614 182.742 9.52668 181.093 9.57979C179.444 9.6329 177.537 9.69108 176.855 9.70372C175.122 9.74166 171.792 9.9642 168.251 10.2753C166.595 10.4194 164.726 10.5838 164.098 10.6369C163.47 10.69 161.927 10.8342 160.67 10.9581C158.213 11.1983 153.71 11.4816 150.202 11.6156C149.008 11.6612 147.751 11.7143 147.409 11.732C147.067 11.7497 145.721 11.7573 144.416 11.7497C143.113 11.7421 141.578 11.7801 141.006 11.8332C140.435 11.8888 138.297 11.9343 136.255 11.9318C134.212 11.9318 132.041 11.9368 131.428 11.9419C130.815 11.9469 130.145 11.8685 129.938 11.7674C129.667 11.6308 129.387 11.6384 128.935 11.7952C128.375 11.9849 128.309 11.9823 128.326 11.7522C128.34 11.5701 128.268 11.5423 128.077 11.6485C127.928 11.732 127.138 11.7522 126.32 11.6915C125.502 11.6333 124.828 11.646 124.822 11.7219C124.816 11.8003 124.927 11.8736 125.067 11.8888C125.269 11.909 125.268 11.9292 125.063 11.9823C124.92 12.0228 124.538 11.8812 124.214 11.6713C123.695 11.3324 123.364 11.2768 121.411 11.1958C115.516 10.9556 110.67 10.6521 110.68 10.5256C110.691 10.3815 112.345 10.3739 120.379 10.4827C122.815 10.5155 126.11 10.5282 127.699 10.5105C129.289 10.4902 132.633 10.4624 135.13 10.4473C141.656 10.4068 142.006 10.4018 143.49 10.379C144.228 10.3663 145.717 10.3233 146.797 10.2854C147.878 10.2449 149.637 10.2171 150.706 10.2196C151.776 10.2222 152.812 10.1665 153.01 10.0932C153.207 10.0199 153.406 9.99454 153.451 10.035C153.53 10.1083 154.52 10.0805 160.135 9.85546C161.615 9.79476 163.662 9.71892 164.686 9.68352C165.71 9.64811 167.528 9.54693 168.726 9.46095C175.931 8.93239 178.222 8.84386 186.622 8.76799C194.805 8.69465 199.785 8.55809 206.982 8.21162C208.292 8.14586 210.246 8.09022 211.324 8.08517C212.402 8.08011 213.634 8.04976 214.062 8.02194L217.9 8.08013C218.036 8.08266 218.144 8.02448 218.202 7.94355C218.303 7.94102 218.401 7.93851 218.511 7.93851C219.197 7.93851 219.709 7.90311 219.648 7.86265C219.491 7.75643 220.667 7.68811 223.646 7.62995C225.062 7.60466 226.776 7.54142 227.455 7.49337C228.135 7.44532 228.926 7.3973 229.214 7.38466C229.502 7.37201 229.873 7.3265 230.038 7.28098C230.249 7.22281 229.941 7.18233 229 7.14692C228.003 7.10899 227.779 7.07866 228.122 7.02808C229.016 6.89657 228.356 6.82066 226.578 6.84848C225.329 6.86618 224.621 6.83838 224.264 6.75493C223.981 6.68917 223.845 6.63604 223.963 6.63352C224.08 6.63352 224.176 6.56017 224.176 6.46913C224.176 6.33004 224.059 6.31235 223.396 6.35029C222.892 6.37811 222.617 6.36041 222.617 6.29719C222.617 6.23649 223.014 6.19855 223.632 6.19855C224.528 6.19855 224.655 6.17577 224.713 6.00127C224.777 5.81159 224.847 5.80656 227.721 5.78127C229.561 5.76609 230.618 5.72561 230.54 5.6725C230.472 5.62698 230.19 5.58907 229.914 5.58907C229.637 5.58907 229.411 5.55112 229.411 5.5056C229.411 5.35891 230.09 5.26787 231.264 5.2527C231.887 5.24258 232.675 5.21226 233.015 5.18191L233.632 5.12877L232.914 5.02509L232.195 4.92141L232.69 4.81012C233.085 4.71908 233.407 4.71911 234.294 4.80257C235.401 4.90625 236 4.84049 236 4.61541C236 4.41309 233.691 4.15006 231.161 4.06407Z" fill="url(#paint0_linear_226_570)"/>
<defs>
<linearGradient id="paint0_linear_226_570" x1="136.632" y1="10.25" x2="165.696" y2="-68.8286" gradientUnits="userSpaceOnUse">
<stop stop-color="#3555D1"/>
<stop offset="1" stop-color="#F4F4F4"/>
</linearGradient>
</defs>
</svg>
